<?xml version="1.0" standalone="no"?><svg xmlns="http://www.w3.org/2000/svg" viewBox="0 0 1440 320"><path fill="#00cba9" fill-opacity="0.8" d="M0,64L9.2,80C18.5,96,37,128,55,133.3C73.8,139,92,117,111,112C129.2,107,148,117,166,117.3C184.6,117,203,107,222,122.7C240,139,258,181,277,181.3C295.4,181,314,139,332,149.3C350.8,160,369,224,388,240C406.2,256,425,224,443,181.3C461.5,139,480,85,498,85.3C516.9,85,535,139,554,176C572.3,213,591,235,609,218.7C627.7,203,646,149,665,149.3C683.1,149,702,203,720,213.3C738.5,224,757,192,775,197.3C793.8,203,812,245,831,224C849.2,203,868,117,886,96C904.6,75,923,117,942,154.7C960,192,978,224,997,208C1015.4,192,1034,128,1052,133.3C1070.8,139,1089,213,1108,245.3C1126.2,277,1145,267,1163,224C1181.5,181,1200,107,1218,117.3C1236.9,128,1255,224,1274,218.7C1292.3,213,1311,107,1329,53.3C1347.7,0,1366,0,1385,0C1403.1,0,1422,0,1431,0L1440,0L1440,320L1430.8,320C1421.5,320,1403,320,1385,320C1366.2,320,1348,320,1329,320C1310.8,320,1292,320,1274,320C1255.4,320,1237,320,1218,320C1200,320,1182,320,1163,320C1144.6,320,1126,320,1108,320C1089.2,320,1071,320,1052,320C1033.8,320,1015,320,997,320C978.5,320,960,320,942,320C923.1,320,905,320,886,320C867.7,320,849,320,831,320C812.3,320,794,320,775,320C756.9,320,738,320,720,320C701.5,320,683,320,665,320C646.2,320,628,320,609,320C590.8,320,572,320,554,320C535.4,320,517,320,498,320C480,320,462,320,443,320C424.6,320,406,320,388,320C369.2,320,351,320,332,320C313.8,320,295,320,277,320C258.5,320,240,320,222,320C203.1,320,185,320,166,320C147.7,320,129,320,111,320C92.3,320,74,320,55,320C36.9,320,18,320,9,320L0,320Z"></path></svg>